<?xml version="1.0" standalone="no"?>
<!DOCTYPE svg PUBLIC "-//W3C//DTD SVG 20010904//EN"
 "http://www.w3.org/TR/2001/REC-SVG-20010904/DTD/svg10.dtd">
<svg version="1.0" xmlns="http://www.w3.org/2000/svg"
 width="617.000000pt" height="217.000000pt" viewBox="0 0 617.000000 217.000000"
 preserveAspectRatio="xMidYMid meet">

<g transform="translate(0.000000,217.000000) scale(0.100000,-0.100000)"
fill="#0c92be" stroke="none">
<path d="M920 1490 c-23 -39 -45 -72 -49 -74 -3 -2 -110 17 -237 44 l-231 47
12 -61 c105 -550 160 -826 163 -817 2 5 -8 127 -23 270 -14 144 -24 265 -21
270 3 5 78 12 166 16 l160 7 0 55 c0 41 10 77 41 151 67 157 69 162 65 162 -2
0 -23 -32 -46 -70z"/>
<path d="M942 1362 c-23 -107 -44 -198 -47 -200 -2 -2 -54 -7 -115 -10 -75 -3
-110 -9 -110 -17 0 -6 5 -58 10 -116 10 -99 10 -111 -20 -248 -17 -79 -29
-146 -27 -148 2 -2 26 70 52 159 27 90 52 165 56 168 5 4 51 16 102 28 l93 23
26 277 c15 152 26 277 25 278 -1 1 -21 -86 -45 -194z"/>
<path d="M1107 1450 c52 -82 60 -100 56 -131 l-5 -36 49 -6 c26 -3 49 -4 50
-3 1 1 5 24 8 53 l7 51 -55 16 c-46 13 -61 24 -96 70 -71 92 -77 86 -14 -14z"/>
<path d="M1033 1495 c52 -182 60 -225 58 -298 l-2 -77 58 6 c32 4 59 7 60 8 1
1 6 27 11 59 l9 57 -36 0 c-20 0 -41 4 -48 8 -7 4 -33 61 -58 127 -43 110 -66
159 -52 110z"/>
<path d="M1580 1048 l5 -453 58 -3 57 -3 0 456 0 455 -62 0 -63 0 5 -452z"/>
<path d="M4538 1488 c9 -9 12 -124 12 -455 l0 -443 60 0 60 0 0 177 c0 150 -2
179 -17 195 -15 17 -12 18 100 18 108 0 118 2 144 24 l28 24 0 212 0 212 -28
24 c-27 23 -33 24 -200 24 -133 0 -168 -3 -159 -12z m267 -248 l0 -125 -67 -3
-68 -3 0 116 c0 94 -3 117 -15 121 -38 15 -8 25 68 22 l82 -3 0 -125z"/>
<path d="M4948 1488 c9 -9 12 -124 12 -455 l0 -444 58 3 57 3 3 174 c2 151 0
176 -14 192 -16 18 -16 19 14 19 36 0 32 10 97 -242 l38 -148 59 0 c40 0 58 4
58 13 0 6 -22 93 -49 192 l-48 180 31 7 c63 13 66 27 66 263 l0 214 -26 20
c-25 19 -40 21 -197 21 -133 0 -168 -3 -159 -12z m272 -243 l0 -125 -70 0 -70
0 0 107 c0 85 -3 110 -17 125 -15 17 -13 18 70 18 l87 0 0 -125z"/>
<path d="M5430 1487 c-49 -25 -50 -33 -48 -455 l3 -394 28 -24 c27 -23 35 -24
163 -24 133 0 135 0 159 26 l25 27 0 393 c0 267 -4 401 -11 417 -6 14 -22 30
-36 36 -34 15 -251 14 -283 -2z m210 -442 l0 -315 -70 0 -70 0 0 303 c0 222
-3 306 -12 315 -9 9 6 12 70 12 l82 0 0 -315z"/>
<path d="M2150 1020 c0 -388 1 -398 61 -419 18 -6 72 -11 120 -11 l89 0 0 60
0 60 -85 0 -85 0 0 153 c0 106 -4 157 -12 165 -9 9 4 12 60 12 l72 0 0 60 0
60 -60 0 -60 0 0 105 0 105 -50 0 -50 0 0 -350z"/>
<path d="M3480 1275 l0 -55 50 0 50 0 0 55 0 55 -50 0 -50 0 0 -55z"/>
<path d="M1768 875 l3 -285 54 0 55 0 0 215 c0 182 -2 217 -15 221 -37 14 -9
25 58 22 l72 -3 3 -227 2 -228 50 0 50 0 0 250 c0 161 -4 258 -11 273 -18 39
-50 47 -192 47 l-132 0 3 -285z"/>
<path d="M2483 1136 l-28 -24 0 -236 c0 -294 -8 -279 155 -284 l110 -4 30 30
c20 21 30 40 30 61 l0 31 -110 0 -110 0 0 45 0 45 64 0 c135 0 156 25 156 190
0 110 0 112 -29 141 -29 28 -32 29 -135 29 -96 0 -107 -2 -133 -24z m197 -156
l0 -60 -60 0 -60 0 0 42 c0 24 -7 49 -17 60 -15 17 -13 18 60 18 l77 0 0 -60z"/>
<path d="M2820 1141 c6 -12 10 -121 10 -285 l0 -266 50 0 50 0 0 207 c0 178
-2 209 -17 225 -15 17 -12 18 85 18 113 0 114 1 87 65 -19 47 -45 55 -171 55
-100 0 -104 -1 -94 -19z"/>
<path d="M3105 1143 c6 -13 55 -382 75 -551 0 -2 37 -2 82 0 l83 3 32 260 c18
143 32 270 32 283 1 20 -4 22 -49 22 -33 0 -50 -4 -51 -12 0 -7 -10 -94 -23
-193 -25 -198 -25 -199 -51 25 -23 196 -16 180 -81 180 -50 0 -55 -2 -49 -17z"/>
<path d="M3468 1148 c9 -9 12 -86 12 -285 l0 -273 50 0 50 0 0 285 0 285 -62
0 c-48 0 -59 -3 -50 -12z"/>
<path d="M3674 1148 c-39 -19 -44 -49 -44 -279 l0 -221 29 -29 c28 -28 33 -29
125 -29 116 0 142 9 162 56 25 60 18 64 -106 64 l-110 0 0 45 0 45 70 0 c39 0
86 6 105 14 45 19 58 69 53 200 -4 93 -5 100 -31 122 -26 22 -37 24 -130 23
-56 0 -112 -5 -123 -11z m176 -168 l0 -60 -60 0 -60 0 0 48 c0 26 -5 53 -12
60 -9 9 4 12 60 12 l72 0 0 -60z"/>
<path d="M3985 1143 c5 -10 21 -119 36 -243 15 -124 31 -244 34 -268 l6 -43
82 3 c64 2 82 6 84 18 1 8 5 56 9 105 l8 90 7 -55 c4 -30 7 -79 8 -107 l1 -53
85 0 c47 0 85 2 85 5 0 11 60 502 66 533 l5 33 -53 -3 -53 -3 -22 -179 c-12
-98 -24 -184 -26 -190 -3 -8 -48 340 -47 367 0 4 -24 7 -54 7 l-54 0 -12 -97
c-32 -267 -36 -289 -43 -258 -3 17 -13 93 -22 170 -22 201 -15 185 -81 185
-50 0 -55 -2 -49 -17z"/>
<path d="M1105 1096 l-80 -11 -7 -45 c-3 -25 -7 -64 -7 -86 l-1 -42 84 27 85
26 6 55 c4 30 9 63 11 73 3 9 2 16 -3 16 -4 -1 -44 -7 -88 -13z"/>
<path d="M915 959 c-22 -5 -57 -14 -77 -20 l-38 -10 0 -67 c0 -60 -4 -73 -34
-117 -65 -97 -108 -168 -99 -162 5 3 47 55 93 116 80 104 88 111 145 132 33
12 63 27 67 33 4 6 8 32 8 59 0 51 0 51 -65 36z"/>
<path d="M582 580 c0 -14 2 -19 5 -12 2 6 2 18 0 25 -3 6 -5 1 -5 -13z"/>
</g>
</svg>
