<?xml version="1.0" standalone="no"?>
<!DOCTYPE svg PUBLIC "-//W3C//DTD SVG 20010904//EN"
 "http://www.w3.org/TR/2001/REC-SVG-20010904/DTD/svg10.dtd">
<svg version="1.0" xmlns="http://www.w3.org/2000/svg"
 width="360.000000pt" height="115.000000pt" viewBox="0 0 360.000000 115.000000"
 preserveAspectRatio="xMidYMid meet">

<g transform="translate(0.000000,115.000000) scale(0.100000,-0.100000)"
fill="#000000" stroke="none">
<path d="M422 817 c-23 -23 -42 -47 -42 -53 0 -5 19 -29 43 -52 l43 -42 47 48
47 48 -48 47 -48 47 -42 -43z m76 -84 l-32 -33 -33 32 -33 32 32 33 32 33 33
-32 33 -32 -32 -33z"/>
<path d="M451 776 c-9 -10 -8 -16 4 -26 21 -17 51 6 34 26 -6 8 -15 14 -19 14
-4 0 -13 -6 -19 -14z"/>
<path d="M242 667 l-62 -63 63 -62 63 -62 62 63 62 63 -63 62 -63 62 -62 -63z
m111 -109 l-47 -48 -48 47 -48 47 47 48 47 48 48 -47 48 -47 -47 -48z"/>
<path d="M275 640 l-29 -30 32 -33 32 -32 30 31 30 30 -33 32 -33 32 -29 -30z
m49 -52 c-13 -14 -20 -15 -31 -7 -16 14 -17 31 -1 47 9 9 16 8 30 -5 17 -15
17 -17 2 -35z"/>
<path d="M1893 713 c-18 -6 -16 -30 2 -37 9 -3 18 1 22 10 7 18 -7 33 -24 27z"/>
<path d="M1170 590 c0 -114 1 -122 24 -145 16 -16 31 -22 45 -18 29 7 26 23
-4 23 -31 0 -45 31 -45 96 0 40 2 44 25 44 14 0 25 5 25 10 0 6 -11 10 -25 10
-23 0 -25 3 -25 50 0 28 -4 50 -10 50 -6 0 -10 -47 -10 -120z"/>
<path d="M3102 698 c-75 -25 -115 -138 -73 -205 73 -116 271 -68 271 65 0 104
-99 173 -198 140z m140 -57 c22 -24 28 -41 28 -76 0 -63 -38 -105 -102 -112
-122 -14 -180 123 -86 202 28 24 39 27 82 22 40 -3 55 -11 78 -36z"/>
<path d="M860 565 c0 -83 4 -135 10 -135 6 0 10 52 10 135 0 83 -4 135 -10
135 -6 0 -10 -52 -10 -135z"/>
<path d="M2550 565 c0 -113 2 -135 15 -135 12 0 15 14 15 65 l0 65 48 0 c65 0
92 20 92 70 0 53 -26 70 -107 70 l-63 0 0 -135z m128 99 c47 -33 14 -84 -55
-84 l-43 0 0 50 0 50 38 0 c21 0 48 -7 60 -16z"/>
<path d="M2790 565 c0 -83 4 -135 10 -135 6 0 10 28 10 65 0 57 2 65 19 65 13
0 32 -22 57 -65 24 -40 46 -65 56 -65 15 0 12 10 -17 55 -38 59 -43 75 -21 75
25 0 58 51 51 80 -10 43 -41 60 -106 60 l-59 0 0 -135z m122 98 c40 -36 8 -83
-59 -83 l-43 0 0 50 0 50 42 0 c24 0 49 -7 60 -17z"/>
<path d="M597 642 c-33 -34 -33 -43 -4 -70 30 -28 38 -28 70 6 l27 28 -33 32
-33 32 -27 -28z m46 -54 c-15 -17 -17 -17 -35 -1 -17 15 -17 17 -1 35 15 17
17 17 35 1 17 -15 17 -17 1 -35z"/>
<path d="M1020 633 c-63 -20 -80 -53 -80 -150 0 -41 4 -53 15 -53 12 0 15 14
15 70 0 78 19 110 65 110 46 0 65 -32 65 -110 0 -40 4 -70 10 -70 6 0 10 33
10 80 0 67 -3 83 -20 100 -11 11 -24 20 -29 20 -5 0 -15 2 -23 4 -7 3 -20 2
-28 -1z"/>
<path d="M1351 626 c-32 -18 -50 -53 -51 -97 0 -68 66 -117 134 -98 30 9 66
36 66 51 0 14 -19 9 -40 -12 -20 -20 -63 -26 -95 -14 -14 6 -45 53 -45 69 0 3
43 5 95 5 52 0 95 2 95 5 0 20 -32 75 -51 89 -28 19 -75 20 -108 2z m80 -16
c12 0 49 -37 49 -50 0 -6 -32 -10 -75 -10 -56 0 -75 3 -75 13 0 26 52 60 78
51 8 -2 18 -4 23 -4z"/>
<path d="M2011 624 c-70 -50 -55 -171 24 -193 44 -12 79 -4 106 25 29 31 18
42 -17 15 -36 -28 -85 -27 -112 2 -12 13 -22 31 -22 40 0 15 12 17 90 17 98 0
102 3 78 55 -23 50 -101 71 -147 39z m112 -32 c36 -31 21 -42 -58 -42 -41 0
-75 2 -75 4 0 19 18 40 44 52 34 14 61 10 89 -14z"/>
<path d="M1579 604 c-20 -21 -24 -38 -27 -100 -5 -93 13 -99 21 -8 7 69 27
114 52 114 7 0 17 5 20 10 14 22 -43 8 -66 -16z"/>
<path d="M1674 598 c36 -83 77 -168 81 -168 2 0 14 21 26 48 11 26 32 71 45
100 17 36 20 52 11 52 -7 0 -28 -35 -48 -77 l-35 -78 -34 78 c-19 42 -41 77
-48 77 -10 0 -9 -7 2 -32z"/>
<path d="M1890 530 c0 -60 4 -100 10 -100 6 0 10 40 10 100 0 60 -4 100 -10
100 -6 0 -10 -40 -10 -100z"/>
<path d="M2200 626 c0 -7 79 -188 85 -194 2 -3 19 28 38 68 l33 74 33 -75 34
-74 37 80 c47 101 56 129 40 123 -7 -2 -26 -37 -44 -77 l-31 -73 -35 76 -35
77 -35 -77 -35 -77 -30 73 c-17 41 -36 75 -43 78 -7 2 -12 1 -12 -2z"/>
<path d="M387 522 l-77 -77 78 -78 77 -77 77 77 77 78 -75 78 c-41 42 -76 77
-77 77 -1 0 -37 -35 -80 -78z m145 -9 c32 -32 58 -62 58 -68 0 -6 -27 -37 -60
-70 l-60 -59 -65 64 -65 64 62 63 c34 35 65 63 67 63 3 0 31 -26 63 -57z"/>
<path d="M422 497 c-23 -23 -42 -47 -42 -53 0 -5 19 -29 43 -52 l43 -42 47 48
47 48 -48 47 -48 47 -42 -43z m76 -84 l-32 -33 -33 32 -33 32 32 33 32 33 33
-32 33 -32 -32 -33z"/>
<path d="M451 456 c-17 -20 13 -43 34 -26 12 10 13 16 4 26 -6 8 -15 14 -19
14 -4 0 -13 -6 -19 -14z"/>
</g>
</svg>
